<svg xmlns="http://www.w3.org/2000/svg" viewBox="0 0 128 128" role="img" aria-labelledby="title desc">
  <title id="title">BodyPractice.io logo</title>
  <desc id="desc">Stylized human anatomy diagram inside a circular medical learning emblem.</desc>
  <defs>
    <linearGradient id="ring" x1="18" y1="12" x2="110" y2="116" gradientUnits="userSpaceOnUse">
      <stop stop-color="#22d3ee"/>
      <stop offset="1" stop-color="#3b82f6"/>
    </linearGradient>
    <linearGradient id="body" x1="42" y1="26" x2="84" y2="108" gradientUnits="userSpaceOnUse">
      <stop stop-color="#fb7185"/>
      <stop offset="0.5" stop-color="#f43f5e"/>
      <stop offset="1" stop-color="#38bdf8"/>
    </linearGradient>
  </defs>
  <circle cx="64" cy="64" r="59" fill="#071425" stroke="url(#ring)" stroke-width="5"/>
  <circle cx="64" cy="64" r="49" fill="none" stroke="#164e63" stroke-width="1.5" opacity="0.9"/>
  <path d="M18 64h92M64 15v98" stroke="#0e7490" stroke-width="1" opacity="0.55"/>
  <circle cx="64" cy="28" r="8.5" fill="url(#body)" stroke="#e0f2fe" stroke-width="1.5"/>
  <path d="M54 40c3-4 17-4 20 0l5 25-8 10 7 32h-9l-5-25-5 25h-9l7-32-8-10 5-25Z" fill="url(#body)" stroke="#e0f2fe" stroke-width="1.6" stroke-linejoin="round"/>
  <path d="M53 43 32 59M75 43l21 16M32 59l-10 7M96 59l10 7" fill="none" stroke="#e0f2fe" stroke-width="5" stroke-linecap="round"/>
  <path d="M64 39v39" stroke="#bae6fd" stroke-width="1.6" stroke-linecap="round" opacity="0.95"/>
  <path d="M55 49c5-4 13-4 18 0M54 55c6-4 14-4 20 0M54 61c6-3 14-3 20 0" fill="none" stroke="#fecdd3" stroke-width="1.5" stroke-linecap="round" opacity="0.95"/>
  <path d="M60 68c2 2 6 2 8 0" fill="none" stroke="#bae6fd" stroke-width="1.4" stroke-linecap="round"/>
</svg>
